# xmcd
#
# Track frame offsets: 
#        150
#        13942
#        25188
#        40228
#        56518
#        72472
#        90751
#        101244
#        116519
#        133522
#        141021
#        159150
#        172662
#
# Disc length: 2531 seconds
#
# Revision: 0
# Processed by: cddbd v1.5.2PL0 Copyright (c) Steve Scherf et al.
# Submitted via: ExactAudioCopy v0.99pb4
#
DISCID=9f09e10d
DTITLE=T-99 - Vagabonds
DYEAR=2007
DGENRE=Blues
TTITLE0=1 Drunk
TTITLE1=2 Betty
TTITLE2=3 Hey Hey
TTITLE3=4 Sun
TTITLE4=5 Fichez Le Camp
TTITLE5=6 Hope It's Gonna Rain
TTITLE6=7 3 X Rooster
TTITLE7=8 Have You Ever
TTITLE8=9 On The Verge Of A Breakdown
TTITLE9=10 Human Cannonball
TTITLE10=11 New Moon
TTITLE11=12 Willow
TTITLE12=13 She's Still Around
EXTD=
EXTT0=
EXTT1=
EXTT2=
EXTT3=
EXTT4=
EXTT5=
EXTT6=
EXTT7=
EXTT8=
EXTT9=
EXTT10=
EXTT11=
EXTT12=
PLAYORDER=
